<?xml version="1.0" encoding="UTF-8" standalone="no"?>
<!DOCTYPE svg PUBLIC "-//W3C//DTD SVG 1.1//EN"
 "http://www.w3.org/Graphics/SVG/1.1/DTD/svg11.dtd">
<!-- Generated by graphviz version 8.0.2 (20230410.1723)
 -->
<!-- Pages: 1 -->
<svg width="1544pt" height="1082pt"
 viewBox="0.00 0.00 1544.00 1082.00" xmlns="http://www.w3.org/2000/svg" xmlns:xlink="http://www.w3.org/1999/xlink">
<g id="graph0" class="graph" transform="scale(0.666667 0.666667) rotate(0) translate(4 1619)">
<polygon fill="white" stroke="none" points="-4,4 -4,-1619 2312,-1619 2312,4 -4,4"/>
<!-- 2841437014912 -->
<g id="node1" class="node">
<title>2841437014912</title>
<polygon fill="#caff70" stroke="black" points="1991.5,-31 1937.5,-31 1937.5,0 1991.5,0 1991.5,-31"/>
<text text-anchor="middle" x="1964.5" y="-7" font-family="monospace" font-size="10.00"> ()</text>
</g>
<!-- 2841975069264 -->
<g id="node2" class="node">
<title>2841975069264</title>
<polygon fill="lightgrey" stroke="black" points="2012,-86 1917,-86 1917,-67 2012,-67 2012,-86"/>
<text text-anchor="middle" x="1964.5" y="-74" font-family="monospace" font-size="10.00">MeanBackward0</text>
</g>
<!-- 2841975069264&#45;&gt;2841437014912 -->
<g id="edge71" class="edge">
<title>2841975069264&#45;&gt;2841437014912</title>
<path fill="none" stroke="black" d="M1964.5,-66.54C1964.5,-59.99 1964.5,-50.77 1964.5,-42.02"/>
<polygon fill="black" stroke="black" points="1968,-42.06 1964.5,-32.06 1961,-42.06 1968,-42.06"/>
</g>
<!-- 2841975075168 -->
<g id="node3" class="node">
<title>2841975075168</title>
<polygon fill="lightgrey" stroke="black" points="2015,-141 1914,-141 1914,-122 2015,-122 2015,-141"/>
<text text-anchor="middle" x="1964.5" y="-129" font-family="monospace" font-size="10.00">AddmmBackward0</text>
</g>
<!-- 2841975075168&#45;&gt;2841975069264 -->
<g id="edge1" class="edge">
<title>2841975075168&#45;&gt;2841975069264</title>
<path fill="none" stroke="black" d="M1964.5,-121.75C1964.5,-115.11 1964.5,-105.73 1964.5,-97.31"/>
<polygon fill="black" stroke="black" points="1968,-97.44 1964.5,-87.44 1961,-97.44 1968,-97.44"/>
</g>
<!-- 2841975065712 -->
<g id="node4" class="node">
<title>2841975065712</title>
<polygon fill="lightgrey" stroke="black" points="1872,-196 1771,-196 1771,-177 1872,-177 1872,-196"/>
<text text-anchor="middle" x="1821.5" y="-184" font-family="monospace" font-size="10.00">AccumulateGrad</text>
</g>
<!-- 2841975065712&#45;&gt;2841975075168 -->
<g id="edge2" class="edge">
<title>2841975065712&#45;&gt;2841975075168</title>
<path fill="none" stroke="black" d="M1845.76,-176.51C1869.01,-167.89 1904.33,-154.8 1930.4,-145.14"/>
<polygon fill="black" stroke="black" points="1931.44,-148.12 1939.6,-141.36 1929.01,-141.55 1931.44,-148.12"/>
</g>
<!-- 2837727004368 -->
<g id="node5" class="node">
<title>2837727004368</title>
<polygon fill="lightblue" stroke="black" points="1863,-262 1780,-262 1780,-232 1863,-232 1863,-262"/>
<text text-anchor="middle" x="1821.5" y="-250" font-family="monospace" font-size="10.00">output.bias</text>
<text text-anchor="middle" x="1821.5" y="-239" font-family="monospace" font-size="10.00"> (2)</text>
</g>
<!-- 2837727004368&#45;&gt;2841975065712 -->
<g id="edge3" class="edge">
<title>2837727004368&#45;&gt;2841975065712</title>
<path fill="none" stroke="black" d="M1821.5,-231.54C1821.5,-224.17 1821.5,-215.1 1821.5,-207.11"/>
<polygon fill="black" stroke="black" points="1825,-207.18 1821.5,-197.18 1818,-207.18 1825,-207.18"/>
</g>
<!-- 2841975073920 -->
<g id="node6" class="node">
<title>2841975073920</title>
<polygon fill="lightgrey" stroke="black" points="2039,-196 1890,-196 1890,-177 2039,-177 2039,-196"/>
<text text-anchor="middle" x="1964.5" y="-184" font-family="monospace" font-size="10.00">NativeDropoutBackward0</text>
</g>
<!-- 2841975073920&#45;&gt;2841975075168 -->
<g id="edge4" class="edge">
<title>2841975073920&#45;&gt;2841975075168</title>
<path fill="none" stroke="black" d="M1964.5,-176.75C1964.5,-170.11 1964.5,-160.73 1964.5,-152.31"/>
<polygon fill="black" stroke="black" points="1968,-152.44 1964.5,-142.44 1961,-152.44 1968,-152.44"/>
</g>
<!-- 2841975076848 -->
<g id="node7" class="node">
<title>2841975076848</title>
<polygon fill="lightgrey" stroke="black" points="2011,-256.5 1916,-256.5 1916,-237.5 2011,-237.5 2011,-256.5"/>
<text text-anchor="middle" x="1963.5" y="-244.5" font-family="monospace" font-size="10.00">ReluBackward0</text>
</g>
<!-- 2841975076848&#45;&gt;2841975073920 -->
<g id="edge5" class="edge">
<title>2841975076848&#45;&gt;2841975073920</title>
<path fill="none" stroke="black" d="M1963.65,-237.37C1963.78,-229.42 1963.99,-217.33 1964.17,-207.05"/>
<polygon fill="black" stroke="black" points="1967.68,-207.23 1964.35,-197.17 1960.68,-207.11 1967.68,-207.23"/>
</g>
<!-- 2841975071856 -->
<g id="node8" class="node">
<title>2841975071856</title>
<polygon fill="lightgrey" stroke="black" points="2042,-322.5 1881,-322.5 1881,-303.5 2042,-303.5 2042,-322.5"/>
<text text-anchor="middle" x="1961.5" y="-310.5" font-family="monospace" font-size="10.00">NativeBatchNormBackward0</text>
</g>
<!-- 2841975071856&#45;&gt;2841975076848 -->
<g id="edge6" class="edge">
<title>2841975071856&#45;&gt;2841975076848</title>
<path fill="none" stroke="black" d="M1961.78,-303.1C1962.06,-293.93 1962.52,-279.34 1962.89,-267.48"/>
<polygon fill="black" stroke="black" points="1966.41,-267.93 1963.22,-257.82 1959.41,-267.71 1966.41,-267.93"/>
</g>
<!-- 2841975074832 -->
<g id="node9" class="node">
<title>2841975074832</title>
<polygon fill="lightgrey" stroke="black" points="1777,-383 1676,-383 1676,-364 1777,-364 1777,-383"/>
<text text-anchor="middle" x="1726.5" y="-371" font-family="monospace" font-size="10.00">AddmmBackward0</text>
</g>
<!-- 2841975074832&#45;&gt;2841975071856 -->
<g id="edge7" class="edge">
<title>2841975074832&#45;&gt;2841975071856</title>
<path fill="none" stroke="black" d="M1762.45,-363.55C1803.31,-353.38 1870.13,-336.74 1914.95,-325.59"/>
<polygon fill="black" stroke="black" points="1915.7,-328.76 1924.56,-322.95 1914.01,-321.97 1915.7,-328.76"/>
</g>
<!-- 2841975064560 -->
<g id="node10" class="node">
<title>2841975064560</title>
<polygon fill="lightgrey" stroke="black" points="1559,-443.5 1458,-443.5 1458,-424.5 1559,-424.5 1559,-443.5"/>
<text text-anchor="middle" x="1508.5" y="-431.5" font-family="monospace" font-size="10.00">AccumulateGrad</text>
</g>
<!-- 2841975064560&#45;&gt;2841975074832 -->
<g id="edge8" class="edge">
<title>2841975064560&#45;&gt;2841975074832</title>
<path fill="none" stroke="black" d="M1541.61,-424.12C1579.3,-414 1641.03,-397.44 1682.69,-386.26"/>
<polygon fill="black" stroke="black" points="1683.33,-389.44 1692.08,-383.47 1681.51,-382.68 1683.33,-389.44"/>
</g>
<!-- 2837683987344 -->
<g id="node11" class="node">
<title>2837683987344</title>
<polygon fill="lightblue" stroke="black" points="1595,-515 1404,-515 1404,-485 1595,-485 1595,-515"/>
<text text-anchor="middle" x="1499.5" y="-503" font-family="monospace" font-size="10.00">linear_combined.1.linear.bias</text>
<text text-anchor="middle" x="1499.5" y="-492" font-family="monospace" font-size="10.00"> (64)</text>
</g>
<!-- 2837683987344&#45;&gt;2841975064560 -->
<g id="edge9" class="edge">
<title>2837683987344&#45;&gt;2841975064560</title>
<path fill="none" stroke="black" d="M1501.5,-484.8C1502.75,-475.89 1504.38,-464.3 1505.75,-454.54"/>
<polygon fill="black" stroke="black" points="1509.33,-455.23 1507.26,-444.84 1502.4,-454.26 1509.33,-455.23"/>
</g>
<!-- 2841975073200 -->
<g id="node12" class="node">
<title>2841975073200</title>
<polygon fill="lightgrey" stroke="black" points="1735,-443.5 1586,-443.5 1586,-424.5 1735,-424.5 1735,-443.5"/>
<text text-anchor="middle" x="1660.5" y="-431.5" font-family="monospace" font-size="10.00">NativeDropoutBackward0</text>
</g>
<!-- 2841975073200&#45;&gt;2841975074832 -->
<g id="edge10" class="edge">
<title>2841975073200&#45;&gt;2841975074832</title>
<path fill="none" stroke="black" d="M1670.52,-424.12C1680.51,-415.27 1696.06,-401.48 1708.24,-390.69"/>
<polygon fill="black" stroke="black" points="1710.22,-393.72 1715.38,-384.47 1705.58,-388.48 1710.22,-393.72"/>
</g>
<!-- 2841975069696 -->
<g id="node13" class="node">
<title>2841975069696</title>
<polygon fill="lightgrey" stroke="black" points="1708,-509.5 1613,-509.5 1613,-490.5 1708,-490.5 1708,-509.5"/>
<text text-anchor="middle" x="1660.5" y="-497.5" font-family="monospace" font-size="10.00">ReluBackward0</text>
</g>
<!-- 2841975069696&#45;&gt;2841975073200 -->
<g id="edge11" class="edge">
<title>2841975069696&#45;&gt;2841975073200</title>
<path fill="none" stroke="black" d="M1660.5,-490.1C1660.5,-480.93 1660.5,-466.34 1660.5,-454.48"/>
<polygon fill="black" stroke="black" points="1664,-454.82 1660.5,-444.82 1657,-454.82 1664,-454.82"/>
</g>
<!-- 2841975073776 -->
<g id="node14" class="node">
<title>2841975073776</title>
<polygon fill="lightgrey" stroke="black" points="1723,-575.5 1562,-575.5 1562,-556.5 1723,-556.5 1723,-575.5"/>
<text text-anchor="middle" x="1642.5" y="-563.5" font-family="monospace" font-size="10.00">NativeBatchNormBackward0</text>
</g>
<!-- 2841975073776&#45;&gt;2841975069696 -->
<g id="edge12" class="edge">
<title>2841975073776&#45;&gt;2841975069696</title>
<path fill="none" stroke="black" d="M1645,-556.1C1647.61,-546.84 1651.77,-532.04 1655.13,-520.11"/>
<polygon fill="black" stroke="black" points="1658.68,-521.4 1658.02,-510.82 1651.94,-519.5 1658.68,-521.4"/>
</g>
<!-- 2841975071568 -->
<g id="node15" class="node">
<title>2841975071568</title>
<polygon fill="lightgrey" stroke="black" points="1471,-636 1370,-636 1370,-617 1471,-617 1471,-636"/>
<text text-anchor="middle" x="1420.5" y="-624" font-family="monospace" font-size="10.00">AddmmBackward0</text>
</g>
<!-- 2841975071568&#45;&gt;2841975073776 -->
<g id="edge13" class="edge">
<title>2841975071568&#45;&gt;2841975073776</title>
<path fill="none" stroke="black" d="M1454.22,-616.62C1492.6,-606.5 1555.46,-589.94 1597.88,-578.76"/>
<polygon fill="black" stroke="black" points="1598.69,-581.9 1607.47,-575.97 1596.9,-575.13 1598.69,-581.9"/>
</g>
<!-- 2841975066048 -->
<g id="node16" class="node">
<title>2841975066048</title>
<polygon fill="lightgrey" stroke="black" points="1257,-696.5 1156,-696.5 1156,-677.5 1257,-677.5 1257,-696.5"/>
<text text-anchor="middle" x="1206.5" y="-684.5" font-family="monospace" font-size="10.00">AccumulateGrad</text>
</g>
<!-- 2841975066048&#45;&gt;2841975071568 -->
<g id="edge14" class="edge">
<title>2841975066048&#45;&gt;2841975071568</title>
<path fill="none" stroke="black" d="M1239,-677.12C1275.92,-667.02 1336.34,-650.51 1377.23,-639.33"/>
<polygon fill="black" stroke="black" points="1377.97,-642.48 1386.69,-636.47 1376.12,-635.73 1377.97,-642.48"/>
</g>
<!-- 2837721933408 -->
<g id="node17" class="node">
<title>2837721933408</title>
<polygon fill="lightblue" stroke="black" points="1255,-768 1064,-768 1064,-738 1255,-738 1255,-768"/>
<text text-anchor="middle" x="1159.5" y="-756" font-family="monospace" font-size="10.00">linear_combined.0.linear.bias</text>
<text text-anchor="middle" x="1159.5" y="-745" font-family="monospace" font-size="10.00"> (512)</text>
</g>
<!-- 2837721933408&#45;&gt;2841975066048 -->
<g id="edge15" class="edge">
<title>2837721933408&#45;&gt;2841975066048</title>
<path fill="none" stroke="black" d="M1169.93,-737.8C1176.9,-728.31 1186.11,-715.76 1193.55,-705.63"/>
<polygon fill="black" stroke="black" points="1196.91,-707.98 1200,-697.84 1191.26,-703.83 1196.91,-707.98"/>
</g>
<!-- 2841975073872 -->
<g id="node18" class="node">
<title>2841975073872</title>
<polygon fill="lightgrey" stroke="black" points="1416,-696.5 1321,-696.5 1321,-677.5 1416,-677.5 1416,-696.5"/>
<text text-anchor="middle" x="1368.5" y="-684.5" font-family="monospace" font-size="10.00">ViewBackward0</text>
</g>
<!-- 2841975073872&#45;&gt;2841975071568 -->
<g id="edge16" class="edge">
<title>2841975073872&#45;&gt;2841975071568</title>
<path fill="none" stroke="black" d="M1376.17,-677.37C1383.93,-668.64 1396.12,-654.93 1405.75,-644.09"/>
<polygon fill="black" stroke="black" points="1407.77,-646.97 1411.8,-637.17 1402.54,-642.32 1407.77,-646.97"/>
</g>
<!-- 2841975074064 -->
<g id="node19" class="node">
<title>2841975074064</title>
<polygon fill="lightgrey" stroke="black" points="1464,-762.5 1273,-762.5 1273,-743.5 1464,-743.5 1464,-762.5"/>
<text text-anchor="middle" x="1368.5" y="-750.5" font-family="monospace" font-size="10.00">MaxPool2DWithIndicesBackward0</text>
</g>
<!-- 2841975074064&#45;&gt;2841975073872 -->
<g id="edge17" class="edge">
<title>2841975074064&#45;&gt;2841975073872</title>
<path fill="none" stroke="black" d="M1368.5,-743.1C1368.5,-733.93 1368.5,-719.34 1368.5,-707.48"/>
<polygon fill="black" stroke="black" points="1372,-707.82 1368.5,-697.82 1365,-707.82 1372,-707.82"/>
</g>
<!-- 2841975073488 -->
<g id="node20" class="node">
<title>2841975073488</title>
<polygon fill="lightgrey" stroke="black" points="1413,-828.5 1324,-828.5 1324,-809.5 1413,-809.5 1413,-828.5"/>
<text text-anchor="middle" x="1368.5" y="-816.5" font-family="monospace" font-size="10.00">MulBackward0</text>
</g>
<!-- 2841975073488&#45;&gt;2841975074064 -->
<g id="edge18" class="edge">
<title>2841975073488&#45;&gt;2841975074064</title>
<path fill="none" stroke="black" d="M1368.5,-809.1C1368.5,-799.93 1368.5,-785.34 1368.5,-773.48"/>
<polygon fill="black" stroke="black" points="1372,-773.82 1368.5,-763.82 1365,-773.82 1372,-773.82"/>
</g>
<!-- 2841975073536 -->
<g id="node21" class="node">
<title>2841975073536</title>
<polygon fill="lightgrey" stroke="black" points="1431,-889 1306,-889 1306,-870 1431,-870 1431,-889"/>
<text text-anchor="middle" x="1368.5" y="-877" font-family="monospace" font-size="10.00">LeakyReluBackward0</text>
</g>
<!-- 2841975073536&#45;&gt;2841975073488 -->
<g id="edge19" class="edge">
<title>2841975073536&#45;&gt;2841975073488</title>
<path fill="none" stroke="black" d="M1368.5,-869.87C1368.5,-861.92 1368.5,-849.83 1368.5,-839.55"/>
<polygon fill="black" stroke="black" points="1372,-839.67 1368.5,-829.67 1365,-839.67 1372,-839.67"/>
</g>
<!-- 2841975069216 -->
<g id="node22" class="node">
<title>2841975069216</title>
<polygon fill="lightgrey" stroke="black" points="1446,-944 1291,-944 1291,-925 1446,-925 1446,-944"/>
<text text-anchor="middle" x="1368.5" y="-932" font-family="monospace" font-size="10.00">CudnnBatchNormBackward0</text>
</g>
<!-- 2841975069216&#45;&gt;2841975073536 -->
<g id="edge20" class="edge">
<title>2841975069216&#45;&gt;2841975073536</title>
<path fill="none" stroke="black" d="M1368.5,-924.75C1368.5,-918.11 1368.5,-908.73 1368.5,-900.31"/>
<polygon fill="black" stroke="black" points="1372,-900.44 1368.5,-890.44 1365,-900.44 1372,-900.44"/>
</g>
<!-- 2841975062640 -->
<g id="node23" class="node">
<title>2841975062640</title>
<polygon fill="lightgrey" stroke="black" points="1202,-999 1065,-999 1065,-980 1202,-980 1202,-999"/>
<text text-anchor="middle" x="1133.5" y="-987" font-family="monospace" font-size="10.00">ConvolutionBackward0</text>
</g>
<!-- 2841975062640&#45;&gt;2841975069216 -->
<g id="edge21" class="edge">
<title>2841975062640&#45;&gt;2841975069216</title>
<path fill="none" stroke="black" d="M1173.36,-979.51C1213.32,-970.5 1274.96,-956.6 1318.25,-946.83"/>
<polygon fill="black" stroke="black" points="1318.85,-950.06 1327.83,-944.45 1317.31,-943.23 1318.85,-950.06"/>
</g>
<!-- 2841975069024 -->
<g id="node24" class="node">
<title>2841975069024</title>
<polygon fill="lightgrey" stroke="black" points="977,-1059.5 888,-1059.5 888,-1040.5 977,-1040.5 977,-1059.5"/>
<text text-anchor="middle" x="932.5" y="-1047.5" font-family="monospace" font-size="10.00">MulBackward0</text>
</g>
<!-- 2841975069024&#45;&gt;2841975062640 -->
<g id="edge22" class="edge">
<title>2841975069024&#45;&gt;2841975062640</title>
<path fill="none" stroke="black" d="M963.03,-1040.12C997.56,-1030.06 1053.97,-1013.65 1092.37,-1002.47"/>
<polygon fill="black" stroke="black" points="1093.06,-1005.62 1101.69,-999.47 1091.11,-998.9 1093.06,-1005.62"/>
</g>
<!-- 2841975062832 -->
<g id="node25" class="node">
<title>2841975062832</title>
<polygon fill="lightgrey" stroke="black" points="966,-1125.5 841,-1125.5 841,-1106.5 966,-1106.5 966,-1125.5"/>
<text text-anchor="middle" x="903.5" y="-1113.5" font-family="monospace" font-size="10.00">LeakyReluBackward0</text>
</g>
<!-- 2841975062832&#45;&gt;2841975069024 -->
<g id="edge23" class="edge">
<title>2841975062832&#45;&gt;2841975069024</title>
<path fill="none" stroke="black" d="M907.53,-1106.1C911.77,-1096.74 918.58,-1081.73 924.01,-1069.74"/>
<polygon fill="black" stroke="black" points="927.56,-1071.38 928.5,-1060.82 921.19,-1068.49 927.56,-1071.38"/>
</g>
<!-- 2841975073056 -->
<g id="node26" class="node">
<title>2841975073056</title>
<polygon fill="lightgrey" stroke="black" points="981,-1186 826,-1186 826,-1167 981,-1167 981,-1186"/>
<text text-anchor="middle" x="903.5" y="-1174" font-family="monospace" font-size="10.00">CudnnBatchNormBackward0</text>
</g>
<!-- 2841975073056&#45;&gt;2841975062832 -->
<g id="edge24" class="edge">
<title>2841975073056&#45;&gt;2841975062832</title>
<path fill="none" stroke="black" d="M903.5,-1166.87C903.5,-1158.92 903.5,-1146.83 903.5,-1136.55"/>
<polygon fill="black" stroke="black" points="907,-1136.67 903.5,-1126.67 900,-1136.67 907,-1136.67"/>
</g>
<!-- 2841975073008 -->
<g id="node27" class="node">
<title>2841975073008</title>
<polygon fill="lightgrey" stroke="black" points="737,-1241 600,-1241 600,-1222 737,-1222 737,-1241"/>
<text text-anchor="middle" x="668.5" y="-1229" font-family="monospace" font-size="10.00">ConvolutionBackward0</text>
</g>
<!-- 2841975073008&#45;&gt;2841975073056 -->
<g id="edge25" class="edge">
<title>2841975073008&#45;&gt;2841975073056</title>
<path fill="none" stroke="black" d="M708.36,-1221.51C748.32,-1212.5 809.96,-1198.6 853.25,-1188.83"/>
<polygon fill="black" stroke="black" points="853.85,-1192.06 862.83,-1186.45 852.31,-1185.23 853.85,-1192.06"/>
</g>
<!-- 2841975072480 -->
<g id="node28" class="node">
<title>2841975072480</title>
<polygon fill="lightgrey" stroke="black" points="512,-1301.5 423,-1301.5 423,-1282.5 512,-1282.5 512,-1301.5"/>
<text text-anchor="middle" x="467.5" y="-1289.5" font-family="monospace" font-size="10.00">MulBackward0</text>
</g>
<!-- 2841975072480&#45;&gt;2841975073008 -->
<g id="edge26" class="edge">
<title>2841975072480&#45;&gt;2841975073008</title>
<path fill="none" stroke="black" d="M498.03,-1282.12C532.56,-1272.06 588.97,-1255.65 627.37,-1244.47"/>
<polygon fill="black" stroke="black" points="628.06,-1247.62 636.69,-1241.47 626.11,-1240.9 628.06,-1247.62"/>
</g>
<!-- 2841975072576 -->
<g id="node29" class="node">
<title>2841975072576</title>
<polygon fill="lightgrey" stroke="black" points="501,-1367.5 376,-1367.5 376,-1348.5 501,-1348.5 501,-1367.5"/>
<text text-anchor="middle" x="438.5" y="-1355.5" font-family="monospace" font-size="10.00">LeakyReluBackward0</text>
</g>
<!-- 2841975072576&#45;&gt;2841975072480 -->
<g id="edge27" class="edge">
<title>2841975072576&#45;&gt;2841975072480</title>
<path fill="none" stroke="black" d="M442.53,-1348.1C446.77,-1338.74 453.58,-1323.73 459.01,-1311.74"/>
<polygon fill="black" stroke="black" points="462.56,-1313.38 463.5,-1302.82 456.19,-1310.49 462.56,-1313.38"/>
</g>
<!-- 2841975072720 -->
<g id="node30" class="node">
<title>2841975072720</title>
<polygon fill="lightgrey" stroke="black" points="516,-1428 361,-1428 361,-1409 516,-1409 516,-1428"/>
<text text-anchor="middle" x="438.5" y="-1416" font-family="monospace" font-size="10.00">CudnnBatchNormBackward0</text>
</g>
<!-- 2841975072720&#45;&gt;2841975072576 -->
<g id="edge28" class="edge">
<title>2841975072720&#45;&gt;2841975072576</title>
<path fill="none" stroke="black" d="M438.5,-1408.87C438.5,-1400.92 438.5,-1388.83 438.5,-1378.55"/>
<polygon fill="black" stroke="black" points="442,-1378.67 438.5,-1368.67 435,-1378.67 442,-1378.67"/>
</g>
<!-- 2841975073152 -->
<g id="node31" class="node">
<title>2841975073152</title>
<polygon fill="lightgrey" stroke="black" points="331,-1483 194,-1483 194,-1464 331,-1464 331,-1483"/>
<text text-anchor="middle" x="262.5" y="-1471" font-family="monospace" font-size="10.00">ConvolutionBackward0</text>
</g>
<!-- 2841975073152&#45;&gt;2841975072720 -->
<g id="edge29" class="edge">
<title>2841975073152&#45;&gt;2841975072720</title>
<path fill="none" stroke="black" d="M292.36,-1463.51C321.52,-1454.73 366.11,-1441.3 398.37,-1431.59"/>
<polygon fill="black" stroke="black" points="399.23,-1434.68 407.79,-1428.45 397.21,-1427.98 399.23,-1434.68"/>
</g>
<!-- 2841975068832 -->
<g id="node32" class="node">
<title>2841975068832</title>
<polygon fill="lightgrey" stroke="black" points="176,-1543.5 75,-1543.5 75,-1524.5 176,-1524.5 176,-1543.5"/>
<text text-anchor="middle" x="125.5" y="-1531.5" font-family="monospace" font-size="10.00">AccumulateGrad</text>
</g>
<!-- 2841975068832&#45;&gt;2841975073152 -->
<g id="edge30" class="edge">
<title>2841975068832&#45;&gt;2841975073152</title>
<path fill="none" stroke="black" d="M146.31,-1524.12C168.94,-1514.45 205.36,-1498.9 231.39,-1487.78"/>
<polygon fill="black" stroke="black" points="232.67,-1490.61 240.5,-1483.47 229.93,-1484.18 232.67,-1490.61"/>
</g>
<!-- 2837687220672 -->
<g id="node33" class="node">
<title>2837687220672</title>
<polygon fill="lightblue" stroke="black" points="179,-1615 0,-1615 0,-1585 179,-1585 179,-1615"/>
<text text-anchor="middle" x="89.5" y="-1603" font-family="monospace" font-size="10.00">conv_combined.0.conv.weight</text>
<text text-anchor="middle" x="89.5" y="-1592" font-family="monospace" font-size="10.00"> (256, 1, 3, 3)</text>
</g>
<!-- 2837687220672&#45;&gt;2841975068832 -->
<g id="edge31" class="edge">
<title>2837687220672&#45;&gt;2841975068832</title>
<path fill="none" stroke="black" d="M97.49,-1584.8C102.72,-1575.5 109.6,-1563.27 115.23,-1553.26"/>
<polygon fill="black" stroke="black" points="118.67,-1555.28 120.53,-1544.84 112.57,-1551.84 118.67,-1555.28"/>
</g>
<!-- 2841975069072 -->
<g id="node34" class="node">
<title>2841975069072</title>
<polygon fill="lightgrey" stroke="black" points="313,-1543.5 212,-1543.5 212,-1524.5 313,-1524.5 313,-1543.5"/>
<text text-anchor="middle" x="262.5" y="-1531.5" font-family="monospace" font-size="10.00">AccumulateGrad</text>
</g>
<!-- 2841975069072&#45;&gt;2841975073152 -->
<g id="edge32" class="edge">
<title>2841975069072&#45;&gt;2841975073152</title>
<path fill="none" stroke="black" d="M262.5,-1524.37C262.5,-1516.42 262.5,-1504.33 262.5,-1494.05"/>
<polygon fill="black" stroke="black" points="266,-1494.17 262.5,-1484.17 259,-1494.17 266,-1494.17"/>
</g>
<!-- 2837687205952 -->
<g id="node35" class="node">
<title>2837687205952</title>
<polygon fill="lightblue" stroke="black" points="364,-1615 197,-1615 197,-1585 364,-1585 364,-1615"/>
<text text-anchor="middle" x="280.5" y="-1603" font-family="monospace" font-size="10.00">conv_combined.0.conv.bias</text>
<text text-anchor="middle" x="280.5" y="-1592" font-family="monospace" font-size="10.00"> (256)</text>
</g>
<!-- 2837687205952&#45;&gt;2841975069072 -->
<g id="edge33" class="edge">
<title>2837687205952&#45;&gt;2841975069072</title>
<path fill="none" stroke="black" d="M276.51,-1584.8C273.97,-1575.8 270.67,-1564.04 267.9,-1554.22"/>
<polygon fill="black" stroke="black" points="271.06,-1553.52 264.99,-1544.84 264.33,-1555.42 271.06,-1553.52"/>
</g>
<!-- 2841975068064 -->
<g id="node36" class="node">
<title>2841975068064</title>
<polygon fill="lightgrey" stroke="black" points="489,-1483 388,-1483 388,-1464 489,-1464 489,-1483"/>
<text text-anchor="middle" x="438.5" y="-1471" font-family="monospace" font-size="10.00">AccumulateGrad</text>
</g>
<!-- 2841975068064&#45;&gt;2841975072720 -->
<g id="edge34" class="edge">
<title>2841975068064&#45;&gt;2841975072720</title>
<path fill="none" stroke="black" d="M438.5,-1463.75C438.5,-1457.11 438.5,-1447.73 438.5,-1439.31"/>
<polygon fill="black" stroke="black" points="442,-1439.44 438.5,-1429.44 435,-1439.44 442,-1439.44"/>
</g>
<!-- 2837687216752 -->
<g id="node37" class="node">
<title>2837687216752</title>
<polygon fill="lightblue" stroke="black" points="546,-1549 331,-1549 331,-1519 546,-1519 546,-1549"/>
<text text-anchor="middle" x="438.5" y="-1537" font-family="monospace" font-size="10.00">conv_combined.0.batch_norm.weight</text>
<text text-anchor="middle" x="438.5" y="-1526" font-family="monospace" font-size="10.00"> (256)</text>
</g>
<!-- 2837687216752&#45;&gt;2841975068064 -->
<g id="edge35" class="edge">
<title>2837687216752&#45;&gt;2841975068064</title>
<path fill="none" stroke="black" d="M438.5,-1518.54C438.5,-1511.17 438.5,-1502.1 438.5,-1494.11"/>
<polygon fill="black" stroke="black" points="442,-1494.18 438.5,-1484.18 435,-1494.18 442,-1494.18"/>
</g>
<!-- 2841975068352 -->
<g id="node38" class="node">
<title>2841975068352</title>
<polygon fill="lightgrey" stroke="black" points="662,-1483 561,-1483 561,-1464 662,-1464 662,-1483"/>
<text text-anchor="middle" x="611.5" y="-1471" font-family="monospace" font-size="10.00">AccumulateGrad</text>
</g>
<!-- 2841975068352&#45;&gt;2841975072720 -->
<g id="edge36" class="edge">
<title>2841975068352&#45;&gt;2841975072720</title>
<path fill="none" stroke="black" d="M582.15,-1463.51C553.48,-1454.73 509.66,-1441.3 477.95,-1431.59"/>
<polygon fill="black" stroke="black" points="479.29,-1428.03 468.7,-1428.45 477.24,-1434.72 479.29,-1428.03"/>
</g>
<!-- 2837687220032 -->
<g id="node39" class="node">
<title>2837687220032</title>
<polygon fill="lightblue" stroke="black" points="767,-1549 564,-1549 564,-1519 767,-1519 767,-1549"/>
<text text-anchor="middle" x="665.5" y="-1537" font-family="monospace" font-size="10.00">conv_combined.0.batch_norm.bias</text>
<text text-anchor="middle" x="665.5" y="-1526" font-family="monospace" font-size="10.00"> (256)</text>
</g>
<!-- 2837687220032&#45;&gt;2841975068352 -->
<g id="edge37" class="edge">
<title>2837687220032&#45;&gt;2841975068352</title>
<path fill="none" stroke="black" d="M652.15,-1518.54C644.47,-1510.22 634.78,-1499.72 626.79,-1491.07"/>
<polygon fill="black" stroke="black" points="629.86,-1489.15 620.51,-1484.18 624.72,-1493.9 629.86,-1489.15"/>
</g>
<!-- 2841975065424 -->
<g id="node40" class="node">
<title>2841975065424</title>
<polygon fill="lightgrey" stroke="black" points="659,-1301.5 558,-1301.5 558,-1282.5 659,-1282.5 659,-1301.5"/>
<text text-anchor="middle" x="608.5" y="-1289.5" font-family="monospace" font-size="10.00">AccumulateGrad</text>
</g>
<!-- 2841975065424&#45;&gt;2841975073008 -->
<g id="edge38" class="edge">
<title>2841975065424&#45;&gt;2841975073008</title>
<path fill="none" stroke="black" d="M617.61,-1282.12C626.6,-1273.35 640.55,-1259.75 651.57,-1249"/>
<polygon fill="black" stroke="black" points="653.58,-1251.96 658.3,-1242.47 648.7,-1246.94 653.58,-1251.96"/>
</g>
<!-- 2837686455568 -->
<g id="node41" class="node">
<title>2837686455568</title>
<polygon fill="lightblue" stroke="black" points="698,-1373 519,-1373 519,-1343 698,-1343 698,-1373"/>
<text text-anchor="middle" x="608.5" y="-1361" font-family="monospace" font-size="10.00">conv_combined.1.conv.weight</text>
<text text-anchor="middle" x="608.5" y="-1350" font-family="monospace" font-size="10.00"> (128, 256, 3, 3)</text>
</g>
<!-- 2837686455568&#45;&gt;2841975065424 -->
<g id="edge39" class="edge">
<title>2837686455568&#45;&gt;2841975065424</title>
<path fill="none" stroke="black" d="M608.5,-1342.8C608.5,-1333.89 608.5,-1322.3 608.5,-1312.54"/>
<polygon fill="black" stroke="black" points="612,-1312.84 608.5,-1302.84 605,-1312.84 612,-1312.84"/>
</g>
<!-- 2841975066768 -->
<g id="node42" class="node">
<title>2841975066768</title>
<polygon fill="lightgrey" stroke="black" points="778,-1301.5 677,-1301.5 677,-1282.5 778,-1282.5 778,-1301.5"/>
<text text-anchor="middle" x="727.5" y="-1289.5" font-family="monospace" font-size="10.00">AccumulateGrad</text>
</g>
<!-- 2841975066768&#45;&gt;2841975073008 -->
<g id="edge40" class="edge">
<title>2841975066768&#45;&gt;2841975073008</title>
<path fill="none" stroke="black" d="M718.54,-1282.12C709.7,-1273.35 695.98,-1259.75 685.14,-1249"/>
<polygon fill="black" stroke="black" points="688.11,-1247.02 678.55,-1242.47 683.18,-1251.99 688.11,-1247.02"/>
</g>
<!-- 2837687211312 -->
<g id="node43" class="node">
<title>2837687211312</title>
<polygon fill="lightblue" stroke="black" points="883,-1373 716,-1373 716,-1343 883,-1343 883,-1373"/>
<text text-anchor="middle" x="799.5" y="-1361" font-family="monospace" font-size="10.00">conv_combined.1.conv.bias</text>
<text text-anchor="middle" x="799.5" y="-1350" font-family="monospace" font-size="10.00"> (128)</text>
</g>
<!-- 2837687211312&#45;&gt;2841975066768 -->
<g id="edge41" class="edge">
<title>2837687211312&#45;&gt;2841975066768</title>
<path fill="none" stroke="black" d="M783.52,-1342.8C772.3,-1332.82 757.26,-1319.46 745.6,-1309.09"/>
<polygon fill="black" stroke="black" points="748.25,-1306.87 738.45,-1302.84 743.6,-1312.1 748.25,-1306.87"/>
</g>
<!-- 2841975067584 -->
<g id="node44" class="node">
<title>2841975067584</title>
<polygon fill="lightgrey" stroke="black" points="954,-1241 853,-1241 853,-1222 954,-1222 954,-1241"/>
<text text-anchor="middle" x="903.5" y="-1229" font-family="monospace" font-size="10.00">AccumulateGrad</text>
</g>
<!-- 2841975067584&#45;&gt;2841975073056 -->
<g id="edge42" class="edge">
<title>2841975067584&#45;&gt;2841975073056</title>
<path fill="none" stroke="black" d="M903.5,-1221.75C903.5,-1215.11 903.5,-1205.73 903.5,-1197.31"/>
<polygon fill="black" stroke="black" points="907,-1197.44 903.5,-1187.44 900,-1197.44 907,-1197.44"/>
</g>
<!-- 2837687221872 -->
<g id="node45" class="node">
<title>2837687221872</title>
<polygon fill="lightblue" stroke="black" points="1011,-1307 796,-1307 796,-1277 1011,-1277 1011,-1307"/>
<text text-anchor="middle" x="903.5" y="-1295" font-family="monospace" font-size="10.00">conv_combined.1.batch_norm.weight</text>
<text text-anchor="middle" x="903.5" y="-1284" font-family="monospace" font-size="10.00"> (128)</text>
</g>
<!-- 2837687221872&#45;&gt;2841975067584 -->
<g id="edge43" class="edge">
<title>2837687221872&#45;&gt;2841975067584</title>
<path fill="none" stroke="black" d="M903.5,-1276.54C903.5,-1269.17 903.5,-1260.1 903.5,-1252.11"/>
<polygon fill="black" stroke="black" points="907,-1252.18 903.5,-1242.18 900,-1252.18 907,-1252.18"/>
</g>
<!-- 2841975066096 -->
<g id="node46" class="node">
<title>2841975066096</title>
<polygon fill="lightgrey" stroke="black" points="1127,-1241 1026,-1241 1026,-1222 1127,-1222 1127,-1241"/>
<text text-anchor="middle" x="1076.5" y="-1229" font-family="monospace" font-size="10.00">AccumulateGrad</text>
</g>
<!-- 2841975066096&#45;&gt;2841975073056 -->
<g id="edge44" class="edge">
<title>2841975066096&#45;&gt;2841975073056</title>
<path fill="none" stroke="black" d="M1047.15,-1221.51C1018.48,-1212.73 974.66,-1199.3 942.95,-1189.59"/>
<polygon fill="black" stroke="black" points="944.29,-1186.03 933.7,-1186.45 942.24,-1192.72 944.29,-1186.03"/>
</g>
<!-- 2837563079744 -->
<g id="node47" class="node">
<title>2837563079744</title>
<polygon fill="lightblue" stroke="black" points="1232,-1307 1029,-1307 1029,-1277 1232,-1277 1232,-1307"/>
<text text-anchor="middle" x="1130.5" y="-1295" font-family="monospace" font-size="10.00">conv_combined.1.batch_norm.bias</text>
<text text-anchor="middle" x="1130.5" y="-1284" font-family="monospace" font-size="10.00"> (128)</text>
</g>
<!-- 2837563079744&#45;&gt;2841975066096 -->
<g id="edge45" class="edge">
<title>2837563079744&#45;&gt;2841975066096</title>
<path fill="none" stroke="black" d="M1117.15,-1276.54C1109.47,-1268.22 1099.78,-1257.72 1091.79,-1249.07"/>
<polygon fill="black" stroke="black" points="1094.86,-1247.15 1085.51,-1242.18 1089.72,-1251.9 1094.86,-1247.15"/>
</g>
<!-- 2841975066960 -->
<g id="node48" class="node">
<title>2841975066960</title>
<polygon fill="lightgrey" stroke="black" points="1124,-1059.5 1023,-1059.5 1023,-1040.5 1124,-1040.5 1124,-1059.5"/>
<text text-anchor="middle" x="1073.5" y="-1047.5" font-family="monospace" font-size="10.00">AccumulateGrad</text>
</g>
<!-- 2841975066960&#45;&gt;2841975062640 -->
<g id="edge46" class="edge">
<title>2841975066960&#45;&gt;2841975062640</title>
<path fill="none" stroke="black" d="M1082.61,-1040.12C1091.6,-1031.35 1105.55,-1017.75 1116.57,-1007"/>
<polygon fill="black" stroke="black" points="1118.58,-1009.96 1123.3,-1000.47 1113.7,-1004.94 1118.58,-1009.96"/>
</g>
<!-- 2837563078064 -->
<g id="node49" class="node">
<title>2837563078064</title>
<polygon fill="lightblue" stroke="black" points="1163,-1131 984,-1131 984,-1101 1163,-1101 1163,-1131"/>
<text text-anchor="middle" x="1073.5" y="-1119" font-family="monospace" font-size="10.00">conv_combined.2.conv.weight</text>
<text text-anchor="middle" x="1073.5" y="-1108" font-family="monospace" font-size="10.00"> (64, 128, 3, 3)</text>
</g>
<!-- 2837563078064&#45;&gt;2841975066960 -->
<g id="edge47" class="edge">
<title>2837563078064&#45;&gt;2841975066960</title>
<path fill="none" stroke="black" d="M1073.5,-1100.8C1073.5,-1091.89 1073.5,-1080.3 1073.5,-1070.54"/>
<polygon fill="black" stroke="black" points="1077,-1070.84 1073.5,-1060.84 1070,-1070.84 1077,-1070.84"/>
</g>
<!-- 2841975067968 -->
<g id="node50" class="node">
<title>2841975067968</title>
<polygon fill="lightgrey" stroke="black" points="1243,-1059.5 1142,-1059.5 1142,-1040.5 1243,-1040.5 1243,-1059.5"/>
<text text-anchor="middle" x="1192.5" y="-1047.5" font-family="monospace" font-size="10.00">AccumulateGrad</text>
</g>
<!-- 2841975067968&#45;&gt;2841975062640 -->
<g id="edge48" class="edge">
<title>2841975067968&#45;&gt;2841975062640</title>
<path fill="none" stroke="black" d="M1183.54,-1040.12C1174.7,-1031.35 1160.98,-1017.75 1150.14,-1007"/>
<polygon fill="black" stroke="black" points="1153.11,-1005.02 1143.55,-1000.47 1148.18,-1009.99 1153.11,-1005.02"/>
</g>
<!-- 2837563068384 -->
<g id="node51" class="node">
<title>2837563068384</title>
<polygon fill="lightblue" stroke="black" points="1348,-1131 1181,-1131 1181,-1101 1348,-1101 1348,-1131"/>
<text text-anchor="middle" x="1264.5" y="-1119" font-family="monospace" font-size="10.00">conv_combined.2.conv.bias</text>
<text text-anchor="middle" x="1264.5" y="-1108" font-family="monospace" font-size="10.00"> (64)</text>
</g>
<!-- 2837563068384&#45;&gt;2841975067968 -->
<g id="edge49" class="edge">
<title>2837563068384&#45;&gt;2841975067968</title>
<path fill="none" stroke="black" d="M1248.52,-1100.8C1237.3,-1090.82 1222.26,-1077.46 1210.6,-1067.09"/>
<polygon fill="black" stroke="black" points="1213.25,-1064.87 1203.45,-1060.84 1208.6,-1070.1 1213.25,-1064.87"/>
</g>
<!-- 2841975065856 -->
<g id="node52" class="node">
<title>2841975065856</title>
<polygon fill="lightgrey" stroke="black" points="1419,-999 1318,-999 1318,-980 1419,-980 1419,-999"/>
<text text-anchor="middle" x="1368.5" y="-987" font-family="monospace" font-size="10.00">AccumulateGrad</text>
</g>
<!-- 2841975065856&#45;&gt;2841975069216 -->
<g id="edge50" class="edge">
<title>2841975065856&#45;&gt;2841975069216</title>
<path fill="none" stroke="black" d="M1368.5,-979.75C1368.5,-973.11 1368.5,-963.73 1368.5,-955.31"/>
<polygon fill="black" stroke="black" points="1372,-955.44 1368.5,-945.44 1365,-955.44 1372,-955.44"/>
</g>
<!-- 2837563074864 -->
<g id="node53" class="node">
<title>2837563074864</title>
<polygon fill="lightblue" stroke="black" points="1476,-1065 1261,-1065 1261,-1035 1476,-1035 1476,-1065"/>
<text text-anchor="middle" x="1368.5" y="-1053" font-family="monospace" font-size="10.00">conv_combined.2.batch_norm.weight</text>
<text text-anchor="middle" x="1368.5" y="-1042" font-family="monospace" font-size="10.00"> (64)</text>
</g>
<!-- 2837563074864&#45;&gt;2841975065856 -->
<g id="edge51" class="edge">
<title>2837563074864&#45;&gt;2841975065856</title>
<path fill="none" stroke="black" d="M1368.5,-1034.54C1368.5,-1027.17 1368.5,-1018.1 1368.5,-1010.11"/>
<polygon fill="black" stroke="black" points="1372,-1010.18 1368.5,-1000.18 1365,-1010.18 1372,-1010.18"/>
</g>
<!-- 2841975064464 -->
<g id="node54" class="node">
<title>2841975064464</title>
<polygon fill="lightgrey" stroke="black" points="1592,-999 1491,-999 1491,-980 1592,-980 1592,-999"/>
<text text-anchor="middle" x="1541.5" y="-987" font-family="monospace" font-size="10.00">AccumulateGrad</text>
</g>
<!-- 2841975064464&#45;&gt;2841975069216 -->
<g id="edge52" class="edge">
<title>2841975064464&#45;&gt;2841975069216</title>
<path fill="none" stroke="black" d="M1512.15,-979.51C1483.48,-970.73 1439.66,-957.3 1407.95,-947.59"/>
<polygon fill="black" stroke="black" points="1409.29,-944.03 1398.7,-944.45 1407.24,-950.72 1409.29,-944.03"/>
</g>
<!-- 2837563067184 -->
<g id="node55" class="node">
<title>2837563067184</title>
<polygon fill="lightblue" stroke="black" points="1697,-1065 1494,-1065 1494,-1035 1697,-1035 1697,-1065"/>
<text text-anchor="middle" x="1595.5" y="-1053" font-family="monospace" font-size="10.00">conv_combined.2.batch_norm.bias</text>
<text text-anchor="middle" x="1595.5" y="-1042" font-family="monospace" font-size="10.00"> (64)</text>
</g>
<!-- 2837563067184&#45;&gt;2841975064464 -->
<g id="edge53" class="edge">
<title>2837563067184&#45;&gt;2841975064464</title>
<path fill="none" stroke="black" d="M1582.15,-1034.54C1574.47,-1026.22 1564.78,-1015.72 1556.79,-1007.07"/>
<polygon fill="black" stroke="black" points="1559.86,-1005.15 1550.51,-1000.18 1554.72,-1009.9 1559.86,-1005.15"/>
</g>
<!-- 2841975066144 -->
<g id="node56" class="node">
<title>2841975066144</title>
<polygon fill="lightgrey" stroke="black" points="1511,-696.5 1434,-696.5 1434,-677.5 1511,-677.5 1511,-696.5"/>
<text text-anchor="middle" x="1472.5" y="-684.5" font-family="monospace" font-size="10.00">TBackward0</text>
</g>
<!-- 2841975066144&#45;&gt;2841975071568 -->
<g id="edge54" class="edge">
<title>2841975066144&#45;&gt;2841975071568</title>
<path fill="none" stroke="black" d="M1464.83,-677.37C1457.07,-668.64 1444.88,-654.93 1435.25,-644.09"/>
<polygon fill="black" stroke="black" points="1438.46,-642.32 1429.2,-637.17 1433.23,-646.97 1438.46,-642.32"/>
</g>
<!-- 2841975067824 -->
<g id="node57" class="node">
<title>2841975067824</title>
<polygon fill="lightgrey" stroke="black" points="1583,-762.5 1482,-762.5 1482,-743.5 1583,-743.5 1583,-762.5"/>
<text text-anchor="middle" x="1532.5" y="-750.5" font-family="monospace" font-size="10.00">AccumulateGrad</text>
</g>
<!-- 2841975067824&#45;&gt;2841975066144 -->
<g id="edge55" class="edge">
<title>2841975067824&#45;&gt;2841975066144</title>
<path fill="none" stroke="black" d="M1524.16,-743.1C1514.84,-733.17 1499.57,-716.87 1488.04,-704.57"/>
<polygon fill="black" stroke="black" points="1491.16,-702.72 1481.77,-697.82 1486.06,-707.51 1491.16,-702.72"/>
</g>
<!-- 2837722310240 -->
<g id="node58" class="node">
<title>2837722310240</title>
<polygon fill="lightblue" stroke="black" points="1634,-834 1431,-834 1431,-804 1634,-804 1634,-834"/>
<text text-anchor="middle" x="1532.5" y="-822" font-family="monospace" font-size="10.00">linear_combined.0.linear.weight</text>
<text text-anchor="middle" x="1532.5" y="-811" font-family="monospace" font-size="10.00"> (512, 10816)</text>
</g>
<!-- 2837722310240&#45;&gt;2841975067824 -->
<g id="edge56" class="edge">
<title>2837722310240&#45;&gt;2841975067824</title>
<path fill="none" stroke="black" d="M1532.5,-803.8C1532.5,-794.89 1532.5,-783.3 1532.5,-773.54"/>
<polygon fill="black" stroke="black" points="1536,-773.84 1532.5,-763.84 1529,-773.84 1536,-773.84"/>
</g>
<!-- 2841975064608 -->
<g id="node59" class="node">
<title>2841975064608</title>
<polygon fill="lightgrey" stroke="black" points="1693,-636 1592,-636 1592,-617 1693,-617 1693,-636"/>
<text text-anchor="middle" x="1642.5" y="-624" font-family="monospace" font-size="10.00">AccumulateGrad</text>
</g>
<!-- 2841975064608&#45;&gt;2841975073776 -->
<g id="edge57" class="edge">
<title>2841975064608&#45;&gt;2841975073776</title>
<path fill="none" stroke="black" d="M1642.5,-616.87C1642.5,-608.92 1642.5,-596.83 1642.5,-586.55"/>
<polygon fill="black" stroke="black" points="1646,-586.67 1642.5,-576.67 1639,-586.67 1646,-586.67"/>
</g>
<!-- 2837685624384 -->
<g id="node60" class="node">
<title>2837685624384</title>
<polygon fill="lightblue" stroke="black" points="1756,-702 1529,-702 1529,-672 1756,-672 1756,-702"/>
<text text-anchor="middle" x="1642.5" y="-690" font-family="monospace" font-size="10.00">linear_combined.0.batch_norm.weight</text>
<text text-anchor="middle" x="1642.5" y="-679" font-family="monospace" font-size="10.00"> (512)</text>
</g>
<!-- 2837685624384&#45;&gt;2841975064608 -->
<g id="edge58" class="edge">
<title>2837685624384&#45;&gt;2841975064608</title>
<path fill="none" stroke="black" d="M1642.5,-671.54C1642.5,-664.17 1642.5,-655.1 1642.5,-647.11"/>
<polygon fill="black" stroke="black" points="1646,-647.18 1642.5,-637.18 1639,-647.18 1646,-647.18"/>
</g>
<!-- 2841975063024 -->
<g id="node61" class="node">
<title>2841975063024</title>
<polygon fill="lightgrey" stroke="black" points="1872,-636 1771,-636 1771,-617 1872,-617 1872,-636"/>
<text text-anchor="middle" x="1821.5" y="-624" font-family="monospace" font-size="10.00">AccumulateGrad</text>
</g>
<!-- 2841975063024&#45;&gt;2841975073776 -->
<g id="edge59" class="edge">
<title>2841975063024&#45;&gt;2841975073776</title>
<path fill="none" stroke="black" d="M1794.31,-616.62C1763.82,-606.65 1714.18,-590.43 1680.01,-579.26"/>
<polygon fill="black" stroke="black" points="1681.53,-575.75 1670.94,-575.97 1679.36,-582.4 1681.53,-575.75"/>
</g>
<!-- 2837685623584 -->
<g id="node62" class="node">
<title>2837685623584</title>
<polygon fill="lightblue" stroke="black" points="1989,-702 1774,-702 1774,-672 1989,-672 1989,-702"/>
<text text-anchor="middle" x="1881.5" y="-690" font-family="monospace" font-size="10.00">linear_combined.0.batch_norm.bias</text>
<text text-anchor="middle" x="1881.5" y="-679" font-family="monospace" font-size="10.00"> (512)</text>
</g>
<!-- 2837685623584&#45;&gt;2841975063024 -->
<g id="edge60" class="edge">
<title>2837685623584&#45;&gt;2841975063024</title>
<path fill="none" stroke="black" d="M1866.67,-671.54C1858.04,-663.13 1847.15,-652.51 1838.22,-643.8"/>
<polygon fill="black" stroke="black" points="1841,-641.65 1831.4,-637.18 1836.11,-646.66 1841,-641.65"/>
</g>
<!-- 2841975069936 -->
<g id="node63" class="node">
<title>2841975069936</title>
<polygon fill="lightgrey" stroke="black" points="1830,-443.5 1753,-443.5 1753,-424.5 1830,-424.5 1830,-443.5"/>
<text text-anchor="middle" x="1791.5" y="-431.5" font-family="monospace" font-size="10.00">TBackward0</text>
</g>
<!-- 2841975069936&#45;&gt;2841975074832 -->
<g id="edge61" class="edge">
<title>2841975069936&#45;&gt;2841975074832</title>
<path fill="none" stroke="black" d="M1781.63,-424.12C1771.8,-415.27 1756.48,-401.48 1744.49,-390.69"/>
<polygon fill="black" stroke="black" points="1747.24,-388.56 1737.47,-384.47 1742.56,-393.76 1747.24,-388.56"/>
</g>
<!-- 2841975063360 -->
<g id="node64" class="node">
<title>2841975063360</title>
<polygon fill="lightgrey" stroke="black" points="1876,-509.5 1775,-509.5 1775,-490.5 1876,-490.5 1876,-509.5"/>
<text text-anchor="middle" x="1825.5" y="-497.5" font-family="monospace" font-size="10.00">AccumulateGrad</text>
</g>
<!-- 2841975063360&#45;&gt;2841975069936 -->
<g id="edge62" class="edge">
<title>2841975063360&#45;&gt;2841975069936</title>
<path fill="none" stroke="black" d="M1820.77,-490.1C1815.75,-480.64 1807.66,-465.42 1801.26,-453.37"/>
<polygon fill="black" stroke="black" points="1803.97,-452.01 1796.19,-444.82 1797.79,-455.3 1803.97,-452.01"/>
</g>
<!-- 2837686903776 -->
<g id="node65" class="node">
<title>2837686903776</title>
<polygon fill="lightblue" stroke="black" points="1944,-581 1741,-581 1741,-551 1944,-551 1944,-581"/>
<text text-anchor="middle" x="1842.5" y="-569" font-family="monospace" font-size="10.00">linear_combined.1.linear.weight</text>
<text text-anchor="middle" x="1842.5" y="-558" font-family="monospace" font-size="10.00"> (64, 512)</text>
</g>
<!-- 2837686903776&#45;&gt;2841975063360 -->
<g id="edge63" class="edge">
<title>2837686903776&#45;&gt;2841975063360</title>
<path fill="none" stroke="black" d="M1838.73,-550.8C1836.34,-541.8 1833.21,-530.04 1830.6,-520.22"/>
<polygon fill="black" stroke="black" points="1833.8,-519.61 1827.85,-510.84 1827.03,-521.41 1833.8,-519.61"/>
</g>
<!-- 2841975063120 -->
<g id="node66" class="node">
<title>2841975063120</title>
<polygon fill="lightgrey" stroke="black" points="2012,-383 1911,-383 1911,-364 2012,-364 2012,-383"/>
<text text-anchor="middle" x="1961.5" y="-371" font-family="monospace" font-size="10.00">AccumulateGrad</text>
</g>
<!-- 2841975063120&#45;&gt;2841975071856 -->
<g id="edge64" class="edge">
<title>2841975063120&#45;&gt;2841975071856</title>
<path fill="none" stroke="black" d="M1961.5,-363.87C1961.5,-355.92 1961.5,-343.83 1961.5,-333.55"/>
<polygon fill="black" stroke="black" points="1965,-333.67 1961.5,-323.67 1958,-333.67 1965,-333.67"/>
</g>
<!-- 2837563352672 -->
<g id="node67" class="node">
<title>2837563352672</title>
<polygon fill="lightblue" stroke="black" points="2075,-449 1848,-449 1848,-419 2075,-419 2075,-449"/>
<text text-anchor="middle" x="1961.5" y="-437" font-family="monospace" font-size="10.00">linear_combined.1.batch_norm.weight</text>
<text text-anchor="middle" x="1961.5" y="-426" font-family="monospace" font-size="10.00"> (64)</text>
</g>
<!-- 2837563352672&#45;&gt;2841975063120 -->
<g id="edge65" class="edge">
<title>2837563352672&#45;&gt;2841975063120</title>
<path fill="none" stroke="black" d="M1961.5,-418.54C1961.5,-411.17 1961.5,-402.1 1961.5,-394.11"/>
<polygon fill="black" stroke="black" points="1965,-394.18 1961.5,-384.18 1958,-394.18 1965,-394.18"/>
</g>
<!-- 2841975063408 -->
<g id="node68" class="node">
<title>2841975063408</title>
<polygon fill="lightgrey" stroke="black" points="2191,-383 2090,-383 2090,-364 2191,-364 2191,-383"/>
<text text-anchor="middle" x="2140.5" y="-371" font-family="monospace" font-size="10.00">AccumulateGrad</text>
</g>
<!-- 2841975063408&#45;&gt;2841975071856 -->
<g id="edge66" class="edge">
<title>2841975063408&#45;&gt;2841975071856</title>
<path fill="none" stroke="black" d="M2113.31,-363.62C2082.82,-353.65 2033.18,-337.43 1999.01,-326.26"/>
<polygon fill="black" stroke="black" points="2000.53,-322.75 1989.94,-322.97 1998.36,-329.4 2000.53,-322.75"/>
</g>
<!-- 2837563354992 -->
<g id="node69" class="node">
<title>2837563354992</title>
<polygon fill="lightblue" stroke="black" points="2308,-449 2093,-449 2093,-419 2308,-419 2308,-449"/>
<text text-anchor="middle" x="2200.5" y="-437" font-family="monospace" font-size="10.00">linear_combined.1.batch_norm.bias</text>
<text text-anchor="middle" x="2200.5" y="-426" font-family="monospace" font-size="10.00"> (64)</text>
</g>
<!-- 2837563354992&#45;&gt;2841975063408 -->
<g id="edge67" class="edge">
<title>2837563354992&#45;&gt;2841975063408</title>
<path fill="none" stroke="black" d="M2185.67,-418.54C2177.04,-410.13 2166.15,-399.51 2157.22,-390.8"/>
<polygon fill="black" stroke="black" points="2160,-388.65 2150.4,-384.18 2155.11,-393.66 2160,-388.65"/>
</g>
<!-- 2841975073824 -->
<g id="node70" class="node">
<title>2841975073824</title>
<polygon fill="lightgrey" stroke="black" points="2135,-196 2058,-196 2058,-177 2135,-177 2135,-196"/>
<text text-anchor="middle" x="2096.5" y="-184" font-family="monospace" font-size="10.00">TBackward0</text>
</g>
<!-- 2841975073824&#45;&gt;2841975075168 -->
<g id="edge68" class="edge">
<title>2841975073824&#45;&gt;2841975075168</title>
<path fill="none" stroke="black" d="M2074.11,-176.51C2052.84,-167.97 2020.62,-155.03 1996.62,-145.4"/>
<polygon fill="black" stroke="black" points="1998.15,-141.84 1987.56,-141.36 1995.54,-148.33 1998.15,-141.84"/>
</g>
<!-- 2841975065328 -->
<g id="node71" class="node">
<title>2841975065328</title>
<polygon fill="lightgrey" stroke="black" points="2151,-256.5 2050,-256.5 2050,-237.5 2151,-237.5 2151,-256.5"/>
<text text-anchor="middle" x="2100.5" y="-244.5" font-family="monospace" font-size="10.00">AccumulateGrad</text>
</g>
<!-- 2841975065328&#45;&gt;2841975073824 -->
<g id="edge69" class="edge">
<title>2841975065328&#45;&gt;2841975073824</title>
<path fill="none" stroke="black" d="M2099.91,-237.37C2099.37,-229.42 2098.54,-217.33 2097.84,-207.05"/>
<polygon fill="black" stroke="black" points="2101.27,-206.91 2097.09,-197.17 2094.28,-207.38 2101.27,-206.91"/>
</g>
<!-- 2837727006528 -->
<g id="node72" class="node">
<title>2837727006528</title>
<polygon fill="lightblue" stroke="black" points="2155,-328 2060,-328 2060,-298 2155,-298 2155,-328"/>
<text text-anchor="middle" x="2107.5" y="-316" font-family="monospace" font-size="10.00">output.weight</text>
<text text-anchor="middle" x="2107.5" y="-305" font-family="monospace" font-size="10.00"> (2, 64)</text>
</g>
<!-- 2837727006528&#45;&gt;2841975065328 -->
<g id="edge70" class="edge">
<title>2837727006528&#45;&gt;2841975065328</title>
<path fill="none" stroke="black" d="M2105.95,-297.8C2104.97,-288.89 2103.7,-277.3 2102.64,-267.54"/>
<polygon fill="black" stroke="black" points="2106.03,-267.4 2101.47,-257.84 2099.08,-268.17 2106.03,-267.4"/>
</g>
</g>
</svg>
